<svg width="1180" height="600" viewBox="0 0 1180 600" fill="none" xmlns="http://www.w3.org/2000/svg" font-family="'Segoe UI', system-ui, -apple-system, 'Helvetica Neue', Arial, sans-serif">
  <defs>
    <linearGradient id="bg" x1="0" y1="0" x2="1180" y2="600" gradientUnits="userSpaceOnUse">
      <stop offset="0" stop-color="#0b1020"/>
      <stop offset="1" stop-color="#0a0e1c"/>
    </linearGradient>
    <linearGradient id="win" x1="0" y1="0" x2="0" y2="1">
      <stop offset="0" stop-color="#161d33"/>
      <stop offset="1" stop-color="#111729"/>
    </linearGradient>
    <linearGradient id="wall" x1="0" y1="0" x2="0" y2="1">
      <stop offset="0" stop-color="#2b3354"/>
      <stop offset="1" stop-color="#1a2038"/>
    </linearGradient>
    <linearGradient id="violetEdge" x1="0" y1="0" x2="0" y2="1">
      <stop offset="0" stop-color="#8b6ff8"/>
      <stop offset="1" stop-color="#6f53e8"/>
    </linearGradient>
    <radialGradient id="vglow" cx="0.5" cy="0.5" r="0.5">
      <stop offset="0" stop-color="#8b6ff8" stop-opacity="0.30"/>
      <stop offset="1" stop-color="#8b6ff8" stop-opacity="0"/>
    </radialGradient>
    <filter id="soft" x="-50%" y="-50%" width="200%" height="200%"><feGaussianBlur stdDeviation="7"/></filter>
  </defs>

  <rect x="6" y="6" width="1168" height="588" rx="24" fill="url(#bg)" stroke="#232a42" stroke-width="1.5"/>

  <!-- header -->
  <text x="56" y="56" font-size="26" font-weight="700" fill="#f4f6ff" letter-spacing="0.2">empir<tspan fill="#8b6ff8">3</tspan><tspan fill="#aeb6d6" font-weight="500"> &#160;Bridge</tspan></text>
  <text x="1124" y="52" text-anchor="end" font-size="14" fill="#7e88ac" letter-spacing="0.3">a real browser &#8212; walled off from your personal one</text>
  <line x1="56" y1="86" x2="1124" y2="86" stroke="#1d2438" stroke-width="1"/>

  <!-- ============ LEFT: your personal Chrome ============ -->
  <rect x="82" y="126" width="460" height="410" rx="14" fill="url(#win)" stroke="#2c3556" stroke-width="1.5"/>
  <!-- title bar -->
  <path d="M82 140 a14 14 0 0 1 14 -14 h432 a14 14 0 0 1 14 14 v28 h-460 z" fill="#1b2236"/>
  <circle cx="110" cy="147" r="5" fill="#566089"/>
  <circle cx="128" cy="147" r="5" fill="#566089"/>
  <circle cx="146" cy="147" r="5" fill="#566089"/>
  <rect x="176" y="136" width="342" height="23" rx="11.5" fill="#0e1322" stroke="#2c3556" stroke-width="1"/>
  <path d="M192 142 v-2 a3 3 0 0 1 6 0 v2 M190 142 h10 v8 h-10 z" fill="none" stroke="#6f7aa3" stroke-width="1.3"/>
  <text x="208" y="152" font-size="12" fill="#8a93b8">mail.google.com</text>
  <!-- off-limits badge -->
  <rect x="384" y="184" width="138" height="26" rx="13" fill="#2a1418" stroke="#7f2630"/>
  <path d="M402 191 l11 11 M413 191 l-11 11" stroke="#f87171" stroke-width="2" stroke-linecap="round"/>
  <text x="424" y="201" font-size="11.5" font-weight="700" fill="#f8a3a3" letter-spacing="0.4">NO ACCESS</text>

  <!-- personal rows -->
  <g>
    <rect x="112" y="226" width="400" height="50" rx="10" fill="#0f1424" stroke="#232a42"/>
    <rect x="128" y="241" width="20" height="20" rx="4" fill="#d6492f" opacity="0.85"/>
    <text x="160" y="248" font-size="14" font-weight="600" fill="#e7eafa">Gmail</text>
    <text x="160" y="266" font-size="12" fill="#7e88ac">you@gmail.com &#183; signed in</text>
  </g>
  <g>
    <rect x="112" y="288" width="400" height="50" rx="10" fill="#0f1424" stroke="#232a42"/>
    <rect x="128" y="303" width="20" height="20" rx="4" fill="#2f7d4f" opacity="0.85"/>
    <text x="160" y="310" font-size="14" font-weight="600" fill="#e7eafa">Your bank</text>
    <text x="160" y="328" font-size="12" fill="#7e88ac">saved password &#183; 2FA cookie</text>
  </g>
  <g>
    <rect x="112" y="350" width="400" height="50" rx="10" fill="#0f1424" stroke="#232a42"/>
    <rect x="128" y="365" width="20" height="20" rx="4" fill="#5566aa" opacity="0.85"/>
    <text x="160" y="372" font-size="14" font-weight="600" fill="#e7eafa">Socials, history, 200 open tabs</text>
    <text x="160" y="390" font-size="12" fill="#7e88ac">everything you do, every day</text>
  </g>

  <!-- left footer label -->
  <text x="112" y="450" font-size="12" font-weight="600" fill="#7e88ac" letter-spacing="1.4">YOUR EVERYDAY CHROME</text>
  <text x="112" y="474" font-size="13" fill="#9aa3c7">logins &#183; cookies &#183; history &#8212; the bridge never touches this</text>
  <text x="112" y="500" font-size="12.5" font-weight="600" fill="#86d9cd">Untouched. Unread. Yours.</text>

  <!-- OFF-LIMITS: big red X crossing out the personal browser -->
  <rect x="82" y="170" width="460" height="252" rx="6" fill="#ef4444" opacity="0.07"/>
  <g stroke="#ef4444" stroke-linecap="round" opacity="0.22">
    <line x1="130" y1="200" x2="494" y2="416" stroke-width="26"/>
    <line x1="494" y1="200" x2="130" y2="416" stroke-width="26"/>
  </g>
  <g stroke="#ef4444" stroke-linecap="round" opacity="0.95">
    <line x1="130" y1="200" x2="494" y2="416" stroke-width="14"/>
    <line x1="494" y1="200" x2="130" y2="416" stroke-width="14"/>
  </g>

  <!-- ============ WALL ============ -->
  <ellipse cx="590" cy="331" rx="120" ry="150" fill="url(#vglow)" filter="url(#soft)" opacity="0.55"/>
  <rect x="560" y="150" width="60" height="362" rx="14" fill="url(#wall)" stroke="#3a456a" stroke-width="1.25"/>
  <!-- brick seams -->
  <g stroke="#0f1424" stroke-width="1.5" opacity="0.55">
    <line x1="560" y1="210" x2="620" y2="210"/>
    <line x1="560" y1="270" x2="620" y2="270"/>
    <line x1="560" y1="392" x2="620" y2="392"/>
    <line x1="560" y1="452" x2="620" y2="452"/>
    <line x1="590" y1="150" x2="590" y2="210"/>
    <line x1="590" y1="270" x2="590" y2="331"/>
    <line x1="590" y1="392" x2="590" y2="452"/>
  </g>
  <!-- shield -->
  <circle cx="590" cy="331" r="30" fill="#0e1322" stroke="#8b6ff8" stroke-width="1.5"/>
  <path d="M590 313 l15 6 v13 c0 11 -7 19 -15 22 c-8 -3 -15 -11 -15 -22 v-13 z" fill="url(#violetEdge)"/>
  <path d="M583 332 l5 5 l10 -11" fill="none" stroke="#0e1322" stroke-width="2.4" stroke-linecap="round" stroke-linejoin="round"/>
  <text x="590" y="234" font-size="11" font-weight="700" fill="#cdbcff" text-anchor="middle" letter-spacing="2" transform="rotate(-90 590 234)">WALLED OFF</text>
  <text x="590" y="430" font-size="9.5" font-weight="600" fill="#8089ab" text-anchor="middle" letter-spacing="1.5" transform="rotate(-90 590 430)">SEPARATE PROFILE</text>

  <!-- ============ RIGHT: bridge's dedicated Chrome ============ -->
  <rect x="638" y="126" width="460" height="410" rx="14" fill="url(#win)" stroke="#4b3f86" stroke-width="1.75"/>
  <!-- title bar -->
  <path d="M638 140 a14 14 0 0 1 14 -14 h432 a14 14 0 0 1 14 14 v28 h-460 z" fill="#1c1b36"/>
  <circle cx="666" cy="147" r="5" fill="#6b5fb0"/>
  <circle cx="684" cy="147" r="5" fill="#6b5fb0"/>
  <circle cx="702" cy="147" r="5" fill="#6b5fb0"/>
  <rect x="732" y="136" width="342" height="23" rx="11.5" fill="#0e1322" stroke="#4b3f86" stroke-width="1"/>
  <path d="M748 142 v-2 a3 3 0 0 1 6 0 v2 M746 142 h10 v8 h-10 z" fill="none" stroke="#a08fe0" stroke-width="1.3"/>
  <text x="764" y="152" font-size="12" fill="#b3a6e6">app.empir3.com</text>
  <!-- agent-driven badge -->
  <rect x="938" y="184" width="142" height="26" rx="13" fill="#1f1840" stroke="#5a49a0"/>
  <circle cx="956" cy="197" r="4.5" fill="#8b6ff8"/>
  <text x="968" y="201" font-size="11.5" font-weight="600" fill="#cdbcff" letter-spacing="0.4">AGENT-DRIVEN</text>

  <!-- bridge rows: only granted -->
  <g>
    <rect x="668" y="226" width="400" height="50" rx="10" fill="#12152b" stroke="#2e2a55"/>
    <circle cx="690" cy="251" r="9" fill="none" stroke="#8b6ff8" stroke-width="2.2"/>
    <circle cx="690" cy="251" r="3" fill="#8b6ff8"/>
    <text x="712" y="248" font-size="14" font-weight="600" fill="#e7eafa">app.empir3.com</text>
    <text x="712" y="266" font-size="12" fill="#9b8fd0">a login you explicitly granted</text>
    <text x="1052" y="256" font-size="12" fill="#34d399" text-anchor="end">&#10003;</text>
  </g>
  <g>
    <rect x="668" y="288" width="400" height="50" rx="10" fill="#12152b" stroke="#2e2a55"/>
    <circle cx="690" cy="313" r="9" fill="none" stroke="#8b6ff8" stroke-width="2.2"/>
    <circle cx="690" cy="313" r="3" fill="#8b6ff8"/>
    <text x="712" y="310" font-size="14" font-weight="600" fill="#e7eafa">github.com/your-repo</text>
    <text x="712" y="328" font-size="12" fill="#9b8fd0">granted for this task</text>
    <text x="1052" y="318" font-size="12" fill="#34d399" text-anchor="end">&#10003;</text>
  </g>

  <!-- agent driving: highlighted target + ghost cursor -->
  <rect x="668" y="350" width="400" height="50" rx="10" fill="#160f33" stroke="#8b6ff8" stroke-width="1.75"/>
  <rect x="936" y="362" width="92" height="26" rx="8" fill="#8b6ff8"/>
  <text x="982" y="379" font-size="12.5" font-weight="700" fill="#0b1020" text-anchor="middle">Run</text>
  <text x="690" y="380" font-size="13" fill="#cdbcff">the agent is acting here &#8212; visibly</text>
  <!-- ghost cursor -->
  <g transform="translate(1006 384)">
    <path d="M0 0 L0 19 L5 14 L9 22 L12 21 L8 13 L15 13 z" fill="#ffffff" stroke="#8b6ff8" stroke-width="1.2"/>
  </g>

  <!-- right footer label -->
  <text x="668" y="450" font-size="12" font-weight="600" fill="#9b8fd0" letter-spacing="1.4">BRIDGE&#8217;S DEDICATED CHROME</text>
  <text x="668" y="474" font-size="13" fill="#b3a6e6">only the logins you grant it &#183; persists across runs</text>
  <text x="668" y="500" font-size="12.5" font-weight="600" fill="#cdbcff">Real Chrome. Its own profile. Visible while it works.</text>
</svg>
