<svg width="1280" height="660" viewBox="0 0 1280 660" fill="none" xmlns="http://www.w3.org/2000/svg" font-family="'Segoe UI', system-ui, -apple-system, 'Helvetica Neue', Arial, sans-serif">
  <defs>
    <linearGradient id="bg" x1="0" y1="0" x2="1280" y2="660" gradientUnits="userSpaceOnUse">
      <stop offset="0" stop-color="#0b1020"/>
      <stop offset="1" stop-color="#0a0e1c"/>
    </linearGradient>
    <linearGradient id="card" x1="0" y1="0" x2="0" y2="1">
      <stop offset="0" stop-color="#161d33"/>
      <stop offset="1" stop-color="#121829"/>
    </linearGradient>
    <linearGradient id="spine" x1="0" y1="0" x2="0" y2="1" gradientUnits="objectBoundingBox">
      <stop offset="0" stop-color="#9b82fb"/>
      <stop offset="1" stop-color="#6f53e8"/>
    </linearGradient>
    <linearGradient id="violetFlow" x1="0" y1="0" x2="1" y2="0">
      <stop offset="0" stop-color="#8b6ff8" stop-opacity="0.25"/>
      <stop offset="1" stop-color="#8b6ff8" stop-opacity="0.95"/>
    </linearGradient>
    <linearGradient id="tealFlow" x1="0" y1="0" x2="1" y2="0">
      <stop offset="0" stop-color="#2dd4bf" stop-opacity="0.25"/>
      <stop offset="1" stop-color="#2dd4bf" stop-opacity="0.95"/>
    </linearGradient>
    <radialGradient id="glow" cx="0.5" cy="0.5" r="0.5">
      <stop offset="0" stop-color="#8b6ff8" stop-opacity="0.35"/>
      <stop offset="1" stop-color="#8b6ff8" stop-opacity="0"/>
    </radialGradient>
    <filter id="soft" x="-40%" y="-40%" width="180%" height="180%">
      <feGaussianBlur stdDeviation="6"/>
    </filter>
    <marker id="arrowV" viewBox="0 0 10 10" refX="8" refY="5" markerWidth="7" markerHeight="7" orient="auto-start-reverse">
      <path d="M0 0 L10 5 L0 10 z" fill="#8b6ff8"/>
    </marker>
    <marker id="arrowT" viewBox="0 0 10 10" refX="8" refY="5" markerWidth="7" markerHeight="7" orient="auto-start-reverse">
      <path d="M0 0 L10 5 L0 10 z" fill="#2dd4bf"/>
    </marker>
  </defs>

  <!-- frame -->
  <rect x="6" y="6" width="1268" height="648" rx="24" fill="url(#bg)" stroke="#232a42" stroke-width="1.5"/>
  <ellipse cx="586" cy="375" rx="240" ry="240" fill="url(#glow)" filter="url(#soft)" opacity="0.6"/>

  <!-- header -->
  <text x="56" y="56" font-size="26" font-weight="700" fill="#f4f6ff" letter-spacing="0.2">empir<tspan fill="#8b6ff8">3</tspan><tspan fill="#aeb6d6" font-weight="500"> &#160;Bridge</tspan></text>
  <text x="1224" y="52" text-anchor="end" font-size="14" fill="#7e88ac" letter-spacing="0.3">one agent &#183; every CLI you already pay for &#183; your browser &amp; desktop</text>
  <line x1="56" y1="86" x2="1224" y2="86" stroke="#1d2438" stroke-width="1"/>

  <!-- ===== arrows (drawn under nodes) ===== -->
  <!-- agent -> bridge -->
  <path d="M296 375 L548 375" stroke="#8b6ff8" stroke-width="4" fill="none" marker-end="url(#arrowV)"/>
  <text x="422" y="365" font-size="11.5" font-weight="600" fill="#b9a6ff" text-anchor="middle" letter-spacing="0.6">delegates</text>
  <!-- bridge -> model seats (violet) -->
  <path d="M624 375 C 676 375, 668 178, 712 178" stroke="url(#violetFlow)" stroke-width="2.5" fill="none" marker-end="url(#arrowV)"/>
  <path d="M624 375 C 676 375, 668 244, 712 244" stroke="url(#violetFlow)" stroke-width="2.5" fill="none" marker-end="url(#arrowV)"/>
  <path d="M624 375 C 676 375, 668 310, 712 310" stroke="url(#violetFlow)" stroke-width="2.5" fill="none" marker-end="url(#arrowV)"/>
  <path d="M624 375 C 676 375, 700 376, 712 376" stroke="url(#violetFlow)" stroke-width="2.5" fill="none" marker-end="url(#arrowV)"/>
  <!-- bridge -> machine (teal) -->
  <path d="M624 375 C 690 375, 660 480, 712 480" stroke="url(#tealFlow)" stroke-width="2.5" fill="none" marker-end="url(#arrowT)"/>
  <path d="M624 375 C 690 375, 660 566, 712 566" stroke="url(#tealFlow)" stroke-width="2.5" fill="none" marker-end="url(#arrowT)"/>

  <!-- ===== driving agent ===== -->
  <text x="56" y="294" font-size="12" font-weight="600" fill="#7e88ac" letter-spacing="1.6">ONE CONVERSATION</text>
  <rect x="56" y="304" width="240" height="142" rx="16" fill="url(#card)" stroke="#2c3556" stroke-width="1.5"/>
  <circle cx="92" cy="344" r="16" fill="#8b6ff8" opacity="0.18"/>
  <path d="M84 340 h16 a2 2 0 0 1 2 2 v8 a2 2 0 0 1 -2 2 h-9 l-5 4 v-4 h-2 a2 2 0 0 1 -2 -2 v-8 a2 2 0 0 1 2 -2 z" fill="#8b6ff8"/>
  <text x="120" y="349" font-size="18" font-weight="700" fill="#f4f6ff">The driving agent</text>
  <text x="80" y="392" font-size="13.5" fill="#9aa3c7">Claude Code &#183; Cursor &#183; Codex</text>
  <text x="80" y="414" font-size="13.5" fill="#9aa3c7">&#8230; any MCP client</text>
  <text x="80" y="436" font-size="12" fill="#5f6b91">it composes &#8212; the bridge executes</text>

  <!-- ===== bridge spine (hub) ===== -->
  <rect x="556" y="150" width="62" height="450" rx="31" fill="url(#spine)"/>
  <rect x="556" y="150" width="62" height="450" rx="31" fill="none" stroke="#b9a6ff" stroke-width="1" opacity="0.5"/>
  <text x="587" y="375" font-size="17" font-weight="700" fill="#ffffff" text-anchor="middle" letter-spacing="3" transform="rotate(-90 587 375)">EMPIR3 BRIDGE</text>
  <text x="587" y="138" font-size="11.5" font-weight="600" fill="#7e88ac" text-anchor="middle" letter-spacing="0.8">127.0.0.1 &#183; local</text>
  <text x="587" y="624" font-size="11.5" font-weight="600" fill="#7e88ac" text-anchor="middle" letter-spacing="0.8">read-only by default</text>

  <!-- ===== model seats ===== -->
  <text x="712" y="138" font-size="12" font-weight="600" fill="#7e88ac" letter-spacing="1.2">YOUR MODEL SEATS<tspan fill="#5f6b91" font-weight="500" letter-spacing="0.2">  &#183;  no API keys, no extra cost</tspan></text>

  <g>
    <rect x="712" y="150" width="316" height="56" rx="12" fill="url(#card)" stroke="#2c3556" stroke-width="1.25"/>
    <circle cx="740" cy="178" r="5" fill="#e6e6e6"/>
    <text x="760" y="183" font-size="16" font-weight="600" fill="#eef1fb">Codex</text>
    <text x="1012" y="183" font-size="12" fill="#34d399" text-anchor="end">&#10003; ready</text>
  </g>
  <g>
    <rect x="712" y="216" width="316" height="56" rx="12" fill="url(#card)" stroke="#2c3556" stroke-width="1.25"/>
    <circle cx="740" cy="244" r="5" fill="#9aa0aa"/>
    <text x="760" y="249" font-size="16" font-weight="600" fill="#eef1fb">Grok</text>
    <text x="1012" y="249" font-size="12" fill="#34d399" text-anchor="end">&#10003; ready</text>
  </g>
  <g>
    <rect x="712" y="282" width="316" height="56" rx="12" fill="url(#card)" stroke="#2c3556" stroke-width="1.25"/>
    <circle cx="740" cy="310" r="5" fill="#5b9dff"/>
    <text x="760" y="315" font-size="16" font-weight="600" fill="#eef1fb">Gemini</text>
    <text x="1012" y="315" font-size="12" fill="#34d399" text-anchor="end">&#10003; ready</text>
  </g>
  <g>
    <rect x="712" y="348" width="316" height="56" rx="12" fill="url(#card)" stroke="#2c3556" stroke-width="1.25"/>
    <circle cx="740" cy="376" r="5" fill="#d97757"/>
    <text x="760" y="381" font-size="16" font-weight="600" fill="#eef1fb">Claude</text>
    <text x="1012" y="381" font-size="12" fill="#34d399" text-anchor="end">&#10003; ready</text>
  </g>

  <!-- ===== your machine ===== -->
  <text x="712" y="432" font-size="12" font-weight="600" fill="#7e88ac" letter-spacing="1.2">YOUR MACHINE<tspan fill="#5f6b91" font-weight="500" letter-spacing="0.2">  &#183;  you choose what it touches</tspan></text>

  <!-- chrome card -->
  <rect x="712" y="444" width="440" height="72" rx="14" fill="url(#card)" stroke="#27506a" stroke-width="1.25"/>
  <circle cx="746" cy="480" r="15" fill="#2dd4bf" opacity="0.15"/>
  <circle cx="746" cy="480" r="9" fill="none" stroke="#2dd4bf" stroke-width="2.5"/>
  <circle cx="746" cy="480" r="3" fill="#2dd4bf"/>
  <text x="776" y="476" font-size="16" font-weight="600" fill="#eef1fb">Dedicated Chrome</text>
  <text x="776" y="498" font-size="12.5" fill="#86d9cd">a real browser, walled off from your personal one</text>

  <!-- desktop card -->
  <rect x="712" y="528" width="440" height="72" rx="14" fill="url(#card)" stroke="#27506a" stroke-width="1.25"/>
  <rect x="734" y="552" width="26" height="18" rx="2.5" fill="none" stroke="#2dd4bf" stroke-width="2.5"/>
  <line x1="747" y1="570" x2="747" y2="576" stroke="#2dd4bf" stroke-width="2.5"/>
  <line x1="741" y1="576" x2="753" y2="576" stroke="#2dd4bf" stroke-width="2.5"/>
  <text x="776" y="560" font-size="16" font-weight="600" fill="#eef1fb">Your desktop</text>
  <text x="776" y="582" font-size="12.5" fill="#86d9cd">scoped to a box you draw &#8212; everything else stays private</text>

  <!-- footer -->
  <line x1="56" y1="620" x2="1224" y2="620" stroke="#1d2438" stroke-width="1"/>
</svg>
